<?xml version="1.0" standalone="no"?>
<!DOCTYPE svg PUBLIC "-//W3C//DTD SVG 20010904//EN"
 "http://www.w3.org/TR/2001/REC-SVG-20010904/DTD/svg10.dtd">
<svg version="1.0" xmlns="http://www.w3.org/2000/svg"
 width="512.000000pt" height="512.000000pt" viewBox="0 0 512.000000 512.000000"
 preserveAspectRatio="xMidYMid meet">
<metadata>
Created by potrace 1.14, written by Peter Selinger 2001-2017
</metadata>
<g transform="translate(0.000000,512.000000) scale(0.100000,-0.100000)"
fill="#000000" stroke="none">
<path d="M1046 4902 c-13 -3 -15 -13 -10 -60 21 -225 130 -411 324 -553 37
-27 142 -79 159 -79 25 0 7 -18 -51 -53 -82 -48 -102 -61 -108 -67 -3 -3 -24
-18 -48 -34 -66 -45 -189 -152 -276 -241 -141 -144 -266 -319 -366 -509 -49
-95 -120 -267 -120 -293 0 -7 -19 -17 -42 -24 -191 -51 -354 -182 -436 -352
-54 -110 -72 -197 -68 -322 6 -179 71 -323 203 -452 78 -77 185 -139 283 -164
29 -7 55 -20 57 -29 72 -219 233 -515 364 -665 240 -276 450 -441 740 -579
104 -50 313 -127 379 -140 14 -3 68 -14 120 -25 142 -30 198 -35 400 -36 212
0 277 6 443 40 317 66 641 219 897 424 282 225 528 561 649 887 16 44 32 86
36 95 3 10 32 23 69 33 142 39 298 159 378 291 20 33 49 96 64 140 24 70 28
96 28 205 1 139 -9 180 -71 308 -44 90 -141 196 -230 252 -66 42 -179 90 -211
90 -14 0 -29 27 -61 111 -214 554 -652 996 -1201 1212 -99 39 -230 80 -288 92
-9 1 -35 7 -57 13 -22 6 -62 13 -88 17 -27 3 -57 8 -68 10 -36 7 -183 16 -324
19 -108 3 -153 8 -197 24 -149 53 -260 182 -289 336 -5 31 -7 60 -4 66 7 12
-54 16 -193 12 l-113 -3 6 -57 c11 -107 37 -192 85 -286 l48 -95 -84 4 c-91 4
-134 14 -202 48 -124 60 -225 207 -235 342 l-4 40 -135 5 c-75 3 -143 4 -152
2z m1638 -758 c162 -40 297 -170 346 -333 26 -88 23 -222 -8 -305 -124 -338
-555 -434 -807 -180 -85 86 -145 214 -145 312 l0 32 -150 0 -150 0 0 -39 c0
-64 26 -181 58 -259 100 -243 340 -438 591 -479 83 -14 261 -8 336 12 247 63
457 252 546 490 38 104 49 175 45 305 -3 106 -8 138 -34 215 -16 50 -28 92
-27 93 6 7 182 -86 256 -134 126 -82 190 -134 300 -244 127 -127 153 -158 234
-280 116 -176 193 -346 250 -555 l22 -80 93 -7 c182 -13 288 -84 355 -238 15
-33 20 -67 20 -130 0 -75 -4 -93 -32 -150 -69 -142 -173 -207 -341 -214 -44
-2 -85 -7 -90 -10 -6 -3 -16 -30 -23 -58 -91 -384 -327 -750 -640 -995 -245
-192 -565 -332 -842 -369 -23 -3 -62 -10 -87 -14 -51 -10 -369 -6 -445 5 -591
84 -1117 459 -1380 984 -55 109 -103 235 -135 351 -13 47 -27 89 -31 93 -4 5
-43 10 -87 12 -125 5 -198 34 -274 112 -185 189 -117 500 130 596 24 10 82 20
130 23 111 7 108 6 116 46 19 102 105 329 171 453 110 205 313 444 492 577 32
23 60 45 63 49 12 13 191 117 255 148 213 102 443 164 665 178 52 3 96 6 98 8
6 5 103 -8 156 -21z"/>
<path d="M1604 2763 c-213 -39 -394 -244 -394 -445 l0 -38 145 1 145 0 12 47
c26 102 144 170 243 139 67 -21 120 -80 135 -152 l6 -30 147 -2 147 -1 0 41
c0 87 -59 219 -131 295 -122 128 -278 178 -455 145z"/>
<path d="M3388 2775 c-2 -1 -23 -5 -48 -8 -113 -13 -234 -87 -314 -191 -56
-74 -96 -180 -96 -258 l0 -38 147 3 147 2 11 43 c47 194 325 191 374 -4 l11
-44 150 0 c115 0 148 3 145 13 -2 6 -6 35 -8 62 -18 186 -198 379 -383 409
-50 8 -132 15 -136 11z"/>
<path d="M2058 1646 c-228 -133 -219 -126 -207 -149 19 -37 79 -109 136 -164
149 -143 354 -225 568 -226 113 -1 170 8 265 39 118 40 218 99 318 189 46 41
147 174 138 182 -4 4 -62 40 -129 79 l-121 72 -22 -30 c-163 -220 -435 -293
-674 -181 -84 39 -151 96 -215 183 l-20 28 -37 -22z"/>
</g>
</svg>
